<svg width="25" height="25" viewBox="0 0 25 25" fill="none" xmlns="http://www.w3.org/2000/svg">
<circle cx="12.6201" cy="12.3965" r="12" fill="white"/>
<path d="M12.6784 6.73633C11.1665 6.73633 10.9777 6.74312 10.3841 6.76893C9.79136 6.79611 9.38787 6.88713 9.03308 7.02163C8.66716 7.16021 8.35643 7.34633 8.04709 7.64839C7.73775 7.95045 7.54667 8.25341 7.40522 8.61117C7.26748 8.95761 7.17379 9.3516 7.14643 9.93035C7.1186 10.51 7.11304 10.6943 7.11304 12.1707C7.11304 13.647 7.11999 13.8313 7.14643 14.411C7.17426 14.9893 7.26748 15.3837 7.40522 15.7301C7.54713 16.087 7.73775 16.3909 8.04709 16.6929C8.35643 16.9945 8.6667 17.1816 9.03308 17.3197C9.38834 17.4537 9.79183 17.5457 10.3841 17.5724C10.9777 17.5995 11.1665 17.605 12.6784 17.605C14.1903 17.605 14.3791 17.5982 14.9727 17.5724C15.5649 17.5452 15.9689 17.4537 16.3237 17.3197C16.6891 17.1811 17.0003 16.9945 17.3097 16.6929C17.6186 16.3909 17.8101 16.0884 17.9516 15.7301C18.0888 15.3837 18.183 14.9893 18.2103 14.411C18.2382 13.8313 18.2437 13.647 18.2437 12.1707C18.2437 10.6943 18.2368 10.51 18.2103 9.93035C18.1825 9.35205 18.0888 8.95716 17.9516 8.61117C17.8096 8.25386 17.6186 7.95045 17.3097 7.64839C17.0003 7.34633 16.6905 7.15975 16.3237 7.02163C15.9689 6.88713 15.5649 6.79565 14.9727 6.76893C14.3791 6.74176 14.1903 6.73633 12.6784 6.73633ZM12.6784 7.71451C14.1639 7.71451 14.341 7.72175 14.9277 7.74666C15.4703 7.77157 15.7648 7.85942 15.9606 7.9346C16.2212 8.03287 16.4058 8.15061 16.6015 8.34036C16.7958 8.53056 16.9164 8.71125 17.017 8.96576C17.0931 9.15687 17.184 9.44443 17.2086 9.97428C17.235 10.5476 17.241 10.7197 17.241 12.1707C17.241 13.6216 17.2341 13.7942 17.2067 14.367C17.1784 14.8969 17.088 15.1844 17.0115 15.3755C16.9076 15.6301 16.7893 15.8103 16.5945 16.0014C16.4002 16.1911 16.2124 16.3089 15.9545 16.4072C15.7597 16.4814 15.4606 16.5702 14.918 16.5942C14.3271 16.62 14.1532 16.6259 12.6645 16.6259C11.1753 16.6259 11.0014 16.6191 10.411 16.5924C9.86788 16.5648 9.56875 16.4765 9.37396 16.4017C9.11007 16.3003 8.92873 16.1848 8.73441 15.9946C8.53916 15.8049 8.4144 15.6215 8.31701 15.3697C8.24048 15.1795 8.15051 14.8874 8.12222 14.3575C8.10135 13.7869 8.09393 13.6108 8.09393 12.1639C8.09393 10.7165 8.10135 10.5399 8.12222 9.96251C8.15051 9.43266 8.24048 9.14102 8.31701 8.95082C8.4144 8.69269 8.53916 8.51607 8.73441 8.32542C8.92873 8.13567 9.11007 8.01339 9.37396 7.91875C9.56875 7.84357 9.86139 7.75526 10.404 7.72809C10.9953 7.70771 11.1692 7.70092 12.6575 7.70092L12.6784 7.71451ZM12.6784 9.38013C11.0992 9.38013 9.82058 10.63 9.82058 12.1707C9.82058 13.7126 11.1006 14.9612 12.6784 14.9612C14.2576 14.9612 15.5362 13.7113 15.5362 12.1707C15.5362 10.6287 14.2562 9.38013 12.6784 9.38013ZM12.6784 13.9821C11.6534 13.9821 10.8233 13.1715 10.8233 12.1707C10.8233 11.1698 11.6534 10.3592 12.6784 10.3592C13.7033 10.3592 14.5335 11.1698 14.5335 12.1707C14.5335 13.1715 13.7033 13.9821 12.6784 13.9821ZM16.3172 9.27008C16.3172 9.63011 16.0176 9.9222 15.6494 9.9222C15.2807 9.9222 14.9815 9.62965 14.9815 9.27008C14.9815 8.91051 15.2811 8.61842 15.6494 8.61842C16.0171 8.61796 16.3172 8.91051 16.3172 9.27008Z" fill="#25201D"/>
</svg>
