<svg width="25" height="25" viewBox="0 0 25 25" fill="none" xmlns="http://www.w3.org/2000/svg">
<circle cx="12.6943" cy="12.3965" r="12" fill="white"/>
<path d="M9.83065 16.6997V9.36664H7.33453V16.6997H9.83065ZM8.58291 8.36484C9.45335 8.36484 9.99516 7.80175 9.99516 7.09807C9.97894 6.37852 9.45339 5.83105 8.59943 5.83105C7.7456 5.83105 7.18726 6.37853 7.18726 7.09807C7.18726 7.80178 7.72893 8.36484 8.56661 8.36484H8.58283H8.58291ZM11.2122 16.6997H13.7084V12.6046C13.7084 12.3854 13.7246 12.1665 13.7905 12.0098C13.971 11.5719 14.3817 11.1184 15.0712 11.1184C15.9744 11.1184 16.3358 11.7908 16.3358 12.7766V16.6997H18.8318V12.4949C18.8318 10.2425 17.6003 9.19449 15.958 9.19449C14.6114 9.19449 14.0202 9.92945 13.6918 10.43H13.7084V9.36649H11.2123C11.2451 10.0546 11.2123 16.6996 11.2123 16.6996L11.2122 16.6997Z" fill="#25201D"/>
</svg>
