<svg width="25" height="25" viewBox="0 0 25 25" fill="none" xmlns="http://www.w3.org/2000/svg">
<circle cx="12.1572" cy="12.3965" r="12" fill="white"/>
<path d="M18.6848 8.81055C18.2402 9.00622 17.7654 9.13951 17.2655 9.20038C17.7749 8.89305 18.1668 8.40866 18.3522 7.83071C17.8744 8.10988 17.3449 8.31309 16.7812 8.42626C16.331 7.94389 15.6894 7.64209 14.977 7.64209C13.612 7.64209 12.5052 8.75019 12.5052 10.1153C12.5052 10.3115 12.5278 10.5001 12.569 10.6807C10.5142 10.5836 8.69293 9.59573 7.47409 8.10233C7.25957 8.4655 7.13949 8.88751 7.13949 9.34725C7.13949 10.2074 7.57658 10.9634 8.23876 11.4075C7.83331 11.3945 7.45199 11.2828 7.11939 11.0977V11.1284C7.11939 12.328 7.96997 13.3285 9.10189 13.5563C8.8944 13.6122 8.67535 13.6423 8.45077 13.6423C8.29302 13.6423 8.14179 13.6273 7.99057 13.5991C8.30758 14.5814 9.21895 15.2977 10.3036 15.3178C9.4596 15.9813 8.38998 16.3766 7.23796 16.3766C7.04202 16.3766 6.84659 16.3651 6.65015 16.3429C7.74991 17.0441 9.04562 17.4541 10.4468 17.4541C14.9956 17.4541 17.48 13.6836 17.48 10.4191C17.48 10.314 17.48 10.2079 17.4725 10.1023C17.9553 9.75569 18.3768 9.31758 18.7084 8.82061L18.6848 8.81055Z" fill="#25201D"/>
</svg>
